solid OpenSCAD_Model
  facet normal 1 -0 0
    outer loop
      vertex -99 -74 25
      vertex -99 24.3333 1.01
      vertex -99 24.3333 25
    endloop
  endfacet
  facet normal 1 0 0
    outer loop
      vertex -99 24.3333 1.01
      vertex -99 -74 25
      vertex -99 -74 1.01
    endloop
  endfacet
  facet normal -0 0 1
    outer loop
      vertex -99 24.3333 1.01
      vertex -0.5 -74 1.01
      vertex -0.5 24.3333 1.01
    endloop
  endfacet
  facet normal 0 0 1
    outer loop
      vertex -0.5 -74 1.01
      vertex -99 24.3333 1.01
      vertex -99 -74 1.01
    endloop
  endfacet
  facet normal 0 1 -0
    outer loop
      vertex -0.5 -74 1.01
      vertex -99 -74 25
      vertex -0.5 -74 25
    endloop
  endfacet
  facet normal 0 1 0
    outer loop
      vertex -99 -74 25
      vertex -0.5 -74 1.01
      vertex -99 -74 1.01
    endloop
  endfacet
  facet normal 0 -1 0
    outer loop
      vertex -99 24.3333 1.01
      vertex -0.5 24.3333 25
      vertex -99 24.3333 25
    endloop
  endfacet
  facet normal 0 -1 -0
    outer loop
      vertex -0.5 24.3333 25
      vertex -99 24.3333 1.01
      vertex -0.5 24.3333 1.01
    endloop
  endfacet
  facet normal 1 -0 0
    outer loop
      vertex -99 25.3333 25
      vertex -99 74 1.01
      vertex -99 74 25
    endloop
  endfacet
  facet normal 1 0 0
    outer loop
      vertex -99 74 1.01
      vertex -99 25.3333 25
      vertex -99 25.3333 1.01
    endloop
  endfacet
  facet normal -0 0 1
    outer loop
      vertex -99 74 1.01
      vertex -0.5 25.3333 1.01
      vertex -0.5 74 1.01
    endloop
  endfacet
  facet normal 0 0 1
    outer loop
      vertex -0.5 25.3333 1.01
      vertex -99 74 1.01
      vertex -99 25.3333 1.01
    endloop
  endfacet
  facet normal 0 1 -0
    outer loop
      vertex -0.5 25.3333 1.01
      vertex -99 25.3333 25
      vertex -0.5 25.3333 25
    endloop
  endfacet
  facet normal 0 1 0
    outer loop
      vertex -99 25.3333 25
      vertex -0.5 25.3333 1.01
      vertex -99 25.3333 1.01
    endloop
  endfacet
  facet normal 0 -1 0
    outer loop
      vertex -99 74 1.01
      vertex -0.5 74 25
      vertex -99 74 25
    endloop
  endfacet
  facet normal 0 -1 -0
    outer loop
      vertex -0.5 74 25
      vertex -99 74 1.01
      vertex -0.5 74 1.01
    endloop
  endfacet
  facet normal 0 1 -0
    outer loop
      vertex 100 75 1.01
      vertex 99 75 25
      vertex 100 75 25
    endloop
  endfacet
  facet normal 0 1 0
    outer loop
      vertex 100 75 1.01
      vertex 99 75 1.01
      vertex 99 75 25
    endloop
  endfacet
  facet normal 0 1 -0
    outer loop
      vertex 100 75 0
      vertex 99 75 1.01
      vertex 100 75 1.01
    endloop
  endfacet
  facet normal 0 1 0
    outer loop
      vertex 99 75 1.01
      vertex 100 75 0
      vertex 50.25 75 1.01
    endloop
  endfacet
  facet normal 0 1 0
    outer loop
      vertex 50.25 75 1.01
      vertex 100 75 0
      vertex 49.25 75 1.01
    endloop
  endfacet
  facet normal 0 1 0
    outer loop
      vertex 49.25 75 1.01
      vertex 100 75 0
      vertex 0.5 75 1.01
    endloop
  endfacet
  facet normal 0 1 0
    outer loop
      vertex 0.5 75 1.01
      vertex 100 75 0
      vertex -0.5 75 1.01
    endloop
  endfacet
  facet normal 0 1 0
    outer loop
      vertex -0.5 75 1.01
      vertex 100 75 0
      vertex -49.25 75 1.01
    endloop
  endfacet
  facet normal 0 1 0
    outer loop
      vertex -100 75 0
      vertex -49.25 75 1.01
      vertex 100 75 0
    endloop
  endfacet
  facet normal 0 1 0
    outer loop
      vertex -49.25 75 1.01
      vertex -100 75 0
      vertex -50.25 75 1.01
    endloop
  endfacet
  facet normal 0 1 -0
    outer loop
      vertex 50.25 75 1.01
      vertex 49.25 75 25
      vertex 50.25 75 25
    endloop
  endfacet
  facet normal 0 1 0
    outer loop
      vertex 49.25 75 25
      vertex 50.25 75 1.01
      vertex 49.25 75 1.01
    endloop
  endfacet
  facet normal 0 1 -0
    outer loop
      vertex 0.5 75 1.01
      vertex -0.5 75 25
      vertex 0.5 75 25
    endloop
  endfacet
  facet normal 0 1 0
    outer loop
      vertex -0.5 75 25
      vertex 0.5 75 1.01
      vertex -0.5 75 1.01
    endloop
  endfacet
  facet normal 0 1 -0
    outer loop
      vertex -49.25 75 1.01
      vertex -50.25 75 25
      vertex -49.25 75 25
    endloop
  endfacet
  facet normal 0 1 0
    outer loop
      vertex -50.25 75 25
      vertex -49.25 75 1.01
      vertex -50.25 75 1.01
    endloop
  endfacet
  facet normal 0 1 -0
    outer loop
      vertex -99 75 1.01
      vertex -100 75 25
      vertex -99 75 25
    endloop
  endfacet
  facet normal 0 1 0
    outer loop
      vertex -99 75 1.01
      vertex -100 75 0
      vertex -100 75 25
    endloop
  endfacet
  facet normal 0 1 0
    outer loop
      vertex -50.25 75 1.01
      vertex -100 75 0
      vertex -99 75 1.01
    endloop
  endfacet
  facet normal 0 1 -0
    outer loop
      vertex 99 75 1.01
      vertex 50.25 75 25
      vertex 99 75 25
    endloop
  endfacet
  facet normal 0 1 0
    outer loop
      vertex 50.25 75 25
      vertex 99 75 1.01
      vertex 50.25 75 1.01
    endloop
  endfacet
  facet normal 0 1 -0
    outer loop
      vertex 49.25 75 1.01
      vertex 0.5 75 25
      vertex 49.25 75 25
    endloop
  endfacet
  facet normal 0 1 0
    outer loop
      vertex 0.5 75 25
      vertex 49.25 75 1.01
      vertex 0.5 75 1.01
    endloop
  endfacet
  facet normal 0 1 -0
    outer loop
      vertex -0.5 75 1.01
      vertex -49.25 75 25
      vertex -0.5 75 25
    endloop
  endfacet
  facet normal 0 1 0
    outer loop
      vertex -49.25 75 25
      vertex -0.5 75 1.01
      vertex -49.25 75 1.01
    endloop
  endfacet
  facet normal 0 1 -0
    outer loop
      vertex -50.25 75 1.01
      vertex -99 75 25
      vertex -50.25 75 25
    endloop
  endfacet
  facet normal 0 1 0
    outer loop
      vertex -99 75 25
      vertex -50.25 75 1.01
      vertex -99 75 1.01
    endloop
  endfacet
  facet normal -1 0 0
    outer loop
      vertex -0.5 -74 1.01
      vertex -0.5 24.3333 25
      vertex -0.5 24.3333 1.01
    endloop
  endfacet
  facet normal -1 -0 0
    outer loop
      vertex -0.5 24.3333 25
      vertex -0.5 -74 1.01
      vertex -0.5 -74 25
    endloop
  endfacet
  facet normal -1 0 0
    outer loop
      vertex -0.5 25.3333 1.01
      vertex -0.5 74 25
      vertex -0.5 74 1.01
    endloop
  endfacet
  facet normal -1 -0 0
    outer loop
      vertex -0.5 74 25
      vertex -0.5 25.3333 1.01
      vertex -0.5 25.3333 25
    endloop
  endfacet
  facet normal 1 -0 0
    outer loop
      vertex 0.5 -74 25
      vertex 0.5 -25.3333 1.01
      vertex 0.5 -25.3333 25
    endloop
  endfacet
  facet normal 1 0 0
    outer loop
      vertex 0.5 -25.3333 1.01
      vertex 0.5 -74 25
      vertex 0.5 -74 1.01
    endloop
  endfacet
  facet normal -1 0 0
    outer loop
      vertex 49.25 -74 1.01
      vertex 49.25 -25.3333 25
      vertex 49.25 -25.3333 1.01
    endloop
  endfacet
  facet normal -1 -0 0
    outer loop
      vertex 49.25 -25.3333 25
      vertex 49.25 -74 1.01
      vertex 49.25 -74 25
    endloop
  endfacet
  facet normal -0 0 1
    outer loop
      vertex 0.5 -25.3333 1.01
      vertex 49.25 -74 1.01
      vertex 49.25 -25.3333 1.01
    endloop
  endfacet
  facet normal 0 0 1
    outer loop
      vertex 49.25 -74 1.01
      vertex 0.5 -25.3333 1.01
      vertex 0.5 -74 1.01
    endloop
  endfacet
  facet normal 0 1 -0
    outer loop
      vertex 49.25 -74 1.01
      vertex 0.5 -74 25
      vertex 49.25 -74 25
    endloop
  endfacet
  facet normal 0 1 0
    outer loop
      vertex 0.5 -74 25
      vertex 49.25 -74 1.01
      vertex 0.5 -74 1.01
    endloop
  endfacet
  facet normal 0 -1 0
    outer loop
      vertex 0.5 -25.3333 1.01
      vertex 49.25 -25.3333 25
      vertex 0.5 -25.3333 25
    endloop
  endfacet
  facet normal 0 -1 -0
    outer loop
      vertex 49.25 -25.3333 25
      vertex 0.5 -25.3333 1.01
      vertex 49.25 -25.3333 1.01
    endloop
  endfacet
  facet normal 1 -0 0
    outer loop
      vertex 0.5 -24.3333 25
      vertex 0.5 24.3333 1.01
      vertex 0.5 24.3333 25
    endloop
  endfacet
  facet normal 1 0 0
    outer loop
      vertex 0.5 24.3333 1.01
      vertex 0.5 -24.3333 25
      vertex 0.5 -24.3333 1.01
    endloop
  endfacet
  facet normal -1 0 0
    outer loop
      vertex 49.25 -24.3333 1.01
      vertex 49.25 24.3333 25
      vertex 49.25 24.3333 1.01
    endloop
  endfacet
  facet normal -1 -0 0
    outer loop
      vertex 49.25 24.3333 25
      vertex 49.25 -24.3333 1.01
      vertex 49.25 -24.3333 25
    endloop
  endfacet
  facet normal 0 -1 0
    outer loop
      vertex 0.5 24.3333 1.01
      vertex 49.25 24.3333 25
      vertex 0.5 24.3333 25
    endloop
  endfacet
  facet normal 0 -1 -0
    outer loop
      vertex 49.25 24.3333 25
      vertex 0.5 24.3333 1.01
      vertex 49.25 24.3333 1.01
    endloop
  endfacet
  facet normal -0 0 1
    outer loop
      vertex 0.5 24.3333 1.01
      vertex 49.25 -24.3333 1.01
      vertex 49.25 24.3333 1.01
    endloop
  endfacet
  facet normal 0 0 1
    outer loop
      vertex 49.25 -24.3333 1.01
      vertex 0.5 24.3333 1.01
      vertex 0.5 -24.3333 1.01
    endloop
  endfacet
  facet normal 0 1 -0
    outer loop
      vertex 49.25 -24.3333 1.01
      vertex 0.5 -24.3333 25
      vertex 49.25 -24.3333 25
    endloop
  endfacet
  facet normal 0 1 0
    outer loop
      vertex 0.5 -24.3333 25
      vertex 49.25 -24.3333 1.01
      vertex 0.5 -24.3333 1.01
    endloop
  endfacet
  facet normal 1 -0 0
    outer loop
      vertex 0.5 25.3333 25
      vertex 0.5 74 1.01
      vertex 0.5 74 25
    endloop
  endfacet
  facet normal 1 0 0
    outer loop
      vertex 0.5 74 1.01
      vertex 0.5 25.3333 25
      vertex 0.5 25.3333 1.01
    endloop
  endfacet
  facet normal -1 0 0
    outer loop
      vertex 49.25 25.3333 1.01
      vertex 49.25 74 25
      vertex 49.25 74 1.01
    endloop
  endfacet
  facet normal -1 -0 0
    outer loop
      vertex 49.25 74 25
      vertex 49.25 25.3333 1.01
      vertex 49.25 25.3333 25
    endloop
  endfacet
  facet normal 0 -1 0
    outer loop
      vertex 0.5 74 1.01
      vertex 49.25 74 25
      vertex 0.5 74 25
    endloop
  endfacet
  facet normal 0 -1 -0
    outer loop
      vertex 49.25 74 25
      vertex 0.5 74 1.01
      vertex 49.25 74 1.01
    endloop
  endfacet
  facet normal -0 0 1
    outer loop
      vertex 0.5 74 1.01
      vertex 49.25 25.3333 1.01
      vertex 49.25 74 1.01
    endloop
  endfacet
  facet normal 0 0 1
    outer loop
      vertex 49.25 25.3333 1.01
      vertex 0.5 74 1.01
      vertex 0.5 25.3333 1.01
    endloop
  endfacet
  facet normal 0 1 -0
    outer loop
      vertex 49.25 25.3333 1.01
      vertex 0.5 25.3333 25
      vertex 49.25 25.3333 25
    endloop
  endfacet
  facet normal 0 1 0
    outer loop
      vertex 0.5 25.3333 25
      vertex 49.25 25.3333 1.01
      vertex 0.5 25.3333 1.01
    endloop
  endfacet
  facet normal 1 -0 0
    outer loop
      vertex 50.25 -74 25
      vertex 50.25 -25.3333 1.01
      vertex 50.25 -25.3333 25
    endloop
  endfacet
  facet normal 1 0 0
    outer loop
      vertex 50.25 -25.3333 1.01
      vertex 50.25 -74 25
      vertex 50.25 -74 1.01
    endloop
  endfacet
  facet normal -1 0 0
    outer loop
      vertex 99 -74 1.01
      vertex 99 -25.3333 25
      vertex 99 -25.3333 1.01
    endloop
  endfacet
  facet normal -1 -0 0
    outer loop
      vertex 99 -25.3333 25
      vertex 99 -74 1.01
      vertex 99 -74 25
    endloop
  endfacet
  facet normal 0 -1 0
    outer loop
      vertex 50.25 -25.3333 1.01
      vertex 99 -25.3333 25
      vertex 50.25 -25.3333 25
    endloop
  endfacet
  facet normal 0 -1 -0
    outer loop
      vertex 99 -25.3333 25
      vertex 50.25 -25.3333 1.01
      vertex 99 -25.3333 1.01
    endloop
  endfacet
  facet normal -0 0 1
    outer loop
      vertex 50.25 -25.3333 1.01
      vertex 99 -74 1.01
      vertex 99 -25.3333 1.01
    endloop
  endfacet
  facet normal 0 0 1
    outer loop
      vertex 99 -74 1.01
      vertex 50.25 -25.3333 1.01
      vertex 50.25 -74 1.01
    endloop
  endfacet
  facet normal 0 1 -0
    outer loop
      vertex 99 -74 1.01
      vertex 50.25 -74 25
      vertex 99 -74 25
    endloop
  endfacet
  facet normal 0 1 0
    outer loop
      vertex 50.25 -74 25
      vertex 99 -74 1.01
      vertex 50.25 -74 1.01
    endloop
  endfacet
  facet normal 1 -0 0
    outer loop
      vertex 50.25 -24.3333 25
      vertex 50.25 24.3333 1.01
      vertex 50.25 24.3333 25
    endloop
  endfacet
  facet normal 1 0 0
    outer loop
      vertex 50.25 24.3333 1.01
      vertex 50.25 -24.3333 25
      vertex 50.25 -24.3333 1.01
    endloop
  endfacet
  facet normal -1 0 0
    outer loop
      vertex 99 -24.3333 1.01
      vertex 99 24.3333 25
      vertex 99 24.3333 1.01
    endloop
  endfacet
  facet normal -1 -0 0
    outer loop
      vertex 99 24.3333 25
      vertex 99 -24.3333 1.01
      vertex 99 -24.3333 25
    endloop
  endfacet
  facet normal 0 -1 0
    outer loop
      vertex 50.25 24.3333 1.01
      vertex 99 24.3333 25
      vertex 50.25 24.3333 25
    endloop
  endfacet
  facet normal 0 -1 -0
    outer loop
      vertex 99 24.3333 25
      vertex 50.25 24.3333 1.01
      vertex 99 24.3333 1.01
    endloop
  endfacet
  facet normal -0 0 1
    outer loop
      vertex 50.25 24.3333 1.01
      vertex 99 -24.3333 1.01
      vertex 99 24.3333 1.01
    endloop
  endfacet
  facet normal 0 0 1
    outer loop
      vertex 99 -24.3333 1.01
      vertex 50.25 24.3333 1.01
      vertex 50.25 -24.3333 1.01
    endloop
  endfacet
  facet normal 0 1 -0
    outer loop
      vertex 99 -24.3333 1.01
      vertex 50.25 -24.3333 25
      vertex 99 -24.3333 25
    endloop
  endfacet
  facet normal 0 1 0
    outer loop
      vertex 50.25 -24.3333 25
      vertex 99 -24.3333 1.01
      vertex 50.25 -24.3333 1.01
    endloop
  endfacet
  facet normal 1 -0 0
    outer loop
      vertex 50.25 25.3333 25
      vertex 50.25 74 1.01
      vertex 50.25 74 25
    endloop
  endfacet
  facet normal 1 0 0
    outer loop
      vertex 50.25 74 1.01
      vertex 50.25 25.3333 25
      vertex 50.25 25.3333 1.01
    endloop
  endfacet
  facet normal -1 0 0
    outer loop
      vertex 99 25.3333 1.01
      vertex 99 74 25
      vertex 99 74 1.01
    endloop
  endfacet
  facet normal -1 -0 0
    outer loop
      vertex 99 74 25
      vertex 99 25.3333 1.01
      vertex 99 25.3333 25
    endloop
  endfacet
  facet normal 0 -1 0
    outer loop
      vertex 50.25 74 1.01
      vertex 99 74 25
      vertex 50.25 74 25
    endloop
  endfacet
  facet normal 0 -1 -0
    outer loop
      vertex 99 74 25
      vertex 50.25 74 1.01
      vertex 99 74 1.01
    endloop
  endfacet
  facet normal -0 0 1
    outer loop
      vertex 50.25 74 1.01
      vertex 99 25.3333 1.01
      vertex 99 74 1.01
    endloop
  endfacet
  facet normal 0 0 1
    outer loop
      vertex 99 25.3333 1.01
      vertex 50.25 74 1.01
      vertex 50.25 25.3333 1.01
    endloop
  endfacet
  facet normal 0 1 -0
    outer loop
      vertex 99 25.3333 1.01
      vertex 50.25 25.3333 25
      vertex 99 25.3333 25
    endloop
  endfacet
  facet normal 0 1 0
    outer loop
      vertex 50.25 25.3333 25
      vertex 99 25.3333 1.01
      vertex 50.25 25.3333 1.01
    endloop
  endfacet
  facet normal 1 0 0
    outer loop
      vertex 100 -74 25
      vertex 100 -75 25
      vertex 100 -74 1.01
    endloop
  endfacet
  facet normal 1 0 0
    outer loop
      vertex 100 -24.3333 25
      vertex 100 -25.3333 25
      vertex 100 -24.3333 1.01
    endloop
  endfacet
  facet normal 1 0 0
    outer loop
      vertex 100 25.3333 25
      vertex 100 24.3333 25
      vertex 100 25.3333 1.01
    endloop
  endfacet
  facet normal 1 0 0
    outer loop
      vertex 100 74 1.01
      vertex 100 75 1.01
      vertex 100 75 25
    endloop
  endfacet
  facet normal 1 0 0
    outer loop
      vertex 100 74 1.01
      vertex 100 75 25
      vertex 100 74 25
    endloop
  endfacet
  facet normal 1 0 0
    outer loop
      vertex 100 75 1.01
      vertex 100 74 1.01
      vertex 100 75 0
    endloop
  endfacet
  facet normal 1 -0 0
    outer loop
      vertex 100 25.3333 1.01
      vertex 100 75 0
      vertex 100 74 1.01
    endloop
  endfacet
  facet normal 1 0 0
    outer loop
      vertex 100 24.3333 1.01
      vertex 100 25.3333 1.01
      vertex 100 24.3333 25
    endloop
  endfacet
  facet normal 1 -0 0
    outer loop
      vertex 100 24.3333 1.01
      vertex 100 75 0
      vertex 100 25.3333 1.01
    endloop
  endfacet
  facet normal 1 -0 0
    outer loop
      vertex 100 -24.3333 1.01
      vertex 100 75 0
      vertex 100 24.3333 1.01
    endloop
  endfacet
  facet normal 1 0 0
    outer loop
      vertex 100 -25.3333 1.01
      vertex 100 -24.3333 1.01
      vertex 100 -25.3333 25
    endloop
  endfacet
  facet normal 1 0 0
    outer loop
      vertex 100 -75 0
      vertex 100 -24.3333 1.01
      vertex 100 -25.3333 1.01
    endloop
  endfacet
  facet normal 1 0 0
    outer loop
      vertex 100 -75 0
      vertex 100 -25.3333 1.01
      vertex 100 -74 1.01
    endloop
  endfacet
  facet normal 1 0 0
    outer loop
      vertex 100 -24.3333 1.01
      vertex 100 -75 0
      vertex 100 75 0
    endloop
  endfacet
  facet normal 1 0 0
    outer loop
      vertex 100 -75 0
      vertex 100 -74 1.01
      vertex 100 -75 25
    endloop
  endfacet
  facet normal 1 -0 0
    outer loop
      vertex 100 25.3333 25
      vertex 100 74 1.01
      vertex 100 74 25
    endloop
  endfacet
  facet normal 1 0 0
    outer loop
      vertex 100 74 1.01
      vertex 100 25.3333 25
      vertex 100 25.3333 1.01
    endloop
  endfacet
  facet normal 1 -0 0
    outer loop
      vertex 100 -24.3333 25
      vertex 100 24.3333 1.01
      vertex 100 24.3333 25
    endloop
  endfacet
  facet normal 1 0 0
    outer loop
      vertex 100 24.3333 1.01
      vertex 100 -24.3333 25
      vertex 100 -24.3333 1.01
    endloop
  endfacet
  facet normal 1 -0 0
    outer loop
      vertex 100 -74 25
      vertex 100 -25.3333 1.01
      vertex 100 -25.3333 25
    endloop
  endfacet
  facet normal 1 0 0
    outer loop
      vertex 100 -25.3333 1.01
      vertex 100 -74 25
      vertex 100 -74 1.01
    endloop
  endfacet
  facet normal -1 0 0
    outer loop
      vertex -100 -75 0
      vertex -100 75 25
      vertex -100 75 0
    endloop
  endfacet
  facet normal -1 -0 0
    outer loop
      vertex -100 75 25
      vertex -100 -75 0
      vertex -100 -75 25
    endloop
  endfacet
  facet normal -0 0 1
    outer loop
      vertex -99 25.3333 25
      vertex -0.5 24.3333 25
      vertex -0.5 25.3333 25
    endloop
  endfacet
  facet normal 0 0 1
    outer loop
      vertex -0.5 24.3333 25
      vertex -99 25.3333 25
      vertex -99 24.3333 25
    endloop
  endfacet
  facet normal -0 0 1
    outer loop
      vertex -49.25 75 25
      vertex -0.5 74 25
      vertex -0.5 75 25
    endloop
  endfacet
  facet normal -0 0 1
    outer loop
      vertex -50.25 75 25
      vertex -0.5 74 25
      vertex -49.25 75 25
    endloop
  endfacet
  facet normal 0 0 1
    outer loop
      vertex -99 74 25
      vertex -50.25 75 25
      vertex -99 75 25
    endloop
  endfacet
  facet normal 0 0 1
    outer loop
      vertex -50.25 75 25
      vertex -99 74 25
      vertex -0.5 74 25
    endloop
  endfacet
  facet normal -0 0 1
    outer loop
      vertex -100 75 25
      vertex -99 74 25
      vertex -99 75 25
    endloop
  endfacet
  facet normal 0 0 1
    outer loop
      vertex -99 74 25
      vertex -100 75 25
      vertex -99 25.3333 25
    endloop
  endfacet
  facet normal 0 0 1
    outer loop
      vertex -99 25.3333 25
      vertex -100 75 25
      vertex -99 24.3333 25
    endloop
  endfacet
  facet normal 0 0 1
    outer loop
      vertex -100 -75 25
      vertex -99 24.3333 25
      vertex -100 75 25
    endloop
  endfacet
  facet normal -0 0 1
    outer loop
      vertex 0.5 -24.3333 25
      vertex 49.25 -25.3333 25
      vertex 49.25 -24.3333 25
    endloop
  endfacet
  facet normal 0 0 1
    outer loop
      vertex 49.25 -25.3333 25
      vertex 0.5 -24.3333 25
      vertex 0.5 -25.3333 25
    endloop
  endfacet
  facet normal -0 0 1
    outer loop
      vertex 0.5 25.3333 25
      vertex 49.25 24.3333 25
      vertex 49.25 25.3333 25
    endloop
  endfacet
  facet normal 0 0 1
    outer loop
      vertex 49.25 24.3333 25
      vertex 0.5 25.3333 25
      vertex 0.5 24.3333 25
    endloop
  endfacet
  facet normal -0 0 1
    outer loop
      vertex 0.5 75 25
      vertex 49.25 74 25
      vertex 49.25 75 25
    endloop
  endfacet
  facet normal 0 0 1
    outer loop
      vertex 0.5 75 25
      vertex 0.5 74 25
      vertex 49.25 74 25
    endloop
  endfacet
  facet normal 0 0 1
    outer loop
      vertex -0.5 74 25
      vertex 0.5 74 25
      vertex 0.5 75 25
    endloop
  endfacet
  facet normal 0 0 1
    outer loop
      vertex 0.5 74 25
      vertex -0.5 74 25
      vertex 0.5 25.3333 25
    endloop
  endfacet
  facet normal 0 0 1
    outer loop
      vertex 0.5 25.3333 25
      vertex -0.5 25.3333 25
      vertex 0.5 24.3333 25
    endloop
  endfacet
  facet normal 0 0 1
    outer loop
      vertex -0.5 24.3333 25
      vertex 0.5 24.3333 25
      vertex -0.5 25.3333 25
    endloop
  endfacet
  facet normal 0 0 1
    outer loop
      vertex 0.5 24.3333 25
      vertex -0.5 24.3333 25
      vertex 0.5 -24.3333 25
    endloop
  endfacet
  facet normal 0 0 1
    outer loop
      vertex -0.5 74 25
      vertex 0.5 75 25
      vertex -0.5 75 25
    endloop
  endfacet
  facet normal -0 0 1
    outer loop
      vertex 50.25 -24.3333 25
      vertex 99 -25.3333 25
      vertex 99 -24.3333 25
    endloop
  endfacet
  facet normal 0 0 1
    outer loop
      vertex 99 -25.3333 25
      vertex 50.25 -24.3333 25
      vertex 50.25 -25.3333 25
    endloop
  endfacet
  facet normal -0 0 1
    outer loop
      vertex 50.25 25.3333 25
      vertex 99 24.3333 25
      vertex 99 25.3333 25
    endloop
  endfacet
  facet normal 0 0 1
    outer loop
      vertex 99 24.3333 25
      vertex 50.25 25.3333 25
      vertex 50.25 24.3333 25
    endloop
  endfacet
  facet normal -0 0 1
    outer loop
      vertex 50.25 75 25
      vertex 99 74 25
      vertex 99 75 25
    endloop
  endfacet
  facet normal 0 0 1
    outer loop
      vertex 50.25 75 25
      vertex 50.25 74 25
      vertex 99 74 25
    endloop
  endfacet
  facet normal 0 0 1
    outer loop
      vertex 49.25 74 25
      vertex 50.25 74 25
      vertex 50.25 75 25
    endloop
  endfacet
  facet normal 0 0 1
    outer loop
      vertex 50.25 74 25
      vertex 49.25 74 25
      vertex 50.25 25.3333 25
    endloop
  endfacet
  facet normal 0 0 1
    outer loop
      vertex 50.25 25.3333 25
      vertex 49.25 25.3333 25
      vertex 50.25 24.3333 25
    endloop
  endfacet
  facet normal 0 0 1
    outer loop
      vertex 49.25 24.3333 25
      vertex 50.25 24.3333 25
      vertex 49.25 25.3333 25
    endloop
  endfacet
  facet normal 0 0 1
    outer loop
      vertex 50.25 24.3333 25
      vertex 49.25 24.3333 25
      vertex 50.25 -24.3333 25
    endloop
  endfacet
  facet normal 0 0 1
    outer loop
      vertex 49.25 74 25
      vertex 50.25 75 25
      vertex 49.25 75 25
    endloop
  endfacet
  facet normal 0 0 1
    outer loop
      vertex 99 74 25
      vertex 100 74 25
      vertex 100 75 25
    endloop
  endfacet
  facet normal 0 0 1
    outer loop
      vertex 100 74 25
      vertex 99 74 25
      vertex 100 25.3333 25
    endloop
  endfacet
  facet normal 0 0 1
    outer loop
      vertex 100 25.3333 25
      vertex 99 25.3333 25
      vertex 100 24.3333 25
    endloop
  endfacet
  facet normal 0 0 1
    outer loop
      vertex 100 24.3333 25
      vertex 99 24.3333 25
      vertex 100 -24.3333 25
    endloop
  endfacet
  facet normal 0 0 1
    outer loop
      vertex 99 -24.3333 25
      vertex 100 -24.3333 25
      vertex 99 24.3333 25
    endloop
  endfacet
  facet normal 0 0 1
    outer loop
      vertex 100 -24.3333 25
      vertex 99 -24.3333 25
      vertex 100 -25.3333 25
    endloop
  endfacet
  facet normal 0 0 1
    outer loop
      vertex 99 74 25
      vertex 100 75 25
      vertex 99 75 25
    endloop
  endfacet
  facet normal 0 0 1
    outer loop
      vertex 100 25.3333 25
      vertex 99 74 25
      vertex 99 25.3333 25
    endloop
  endfacet
  facet normal 0 0 1
    outer loop
      vertex 100 24.3333 25
      vertex 99 25.3333 25
      vertex 99 24.3333 25
    endloop
  endfacet
  facet normal 0 0 1
    outer loop
      vertex 99 -25.3333 25
      vertex 100 -25.3333 25
      vertex 99 -24.3333 25
    endloop
  endfacet
  facet normal 0 0 1
    outer loop
      vertex 100 -25.3333 25
      vertex 99 -25.3333 25
      vertex 100 -74 25
    endloop
  endfacet
  facet normal 0 0 1
    outer loop
      vertex 99 -74 25
      vertex 100 -74 25
      vertex 99 -25.3333 25
    endloop
  endfacet
  facet normal 0 0 1
    outer loop
      vertex 100 -74 25
      vertex 99 -74 25
      vertex 100 -75 25
    endloop
  endfacet
  facet normal -0 0 1
    outer loop
      vertex 50.25 -74 25
      vertex 100 -75 25
      vertex 99 -74 25
    endloop
  endfacet
  facet normal 0 0 1
    outer loop
      vertex 50.25 25.3333 25
      vertex 49.25 74 25
      vertex 49.25 25.3333 25
    endloop
  endfacet
  facet normal 0 0 1
    outer loop
      vertex 49.25 -24.3333 25
      vertex 50.25 -24.3333 25
      vertex 49.25 24.3333 25
    endloop
  endfacet
  facet normal 0 0 1
    outer loop
      vertex 50.25 -24.3333 25
      vertex 49.25 -24.3333 25
      vertex 50.25 -25.3333 25
    endloop
  endfacet
  facet normal 0 0 1
    outer loop
      vertex 49.25 -25.3333 25
      vertex 50.25 -25.3333 25
      vertex 49.25 -24.3333 25
    endloop
  endfacet
  facet normal 0 0 1
    outer loop
      vertex 50.25 -25.3333 25
      vertex 49.25 -25.3333 25
      vertex 50.25 -74 25
    endloop
  endfacet
  facet normal 0 0 1
    outer loop
      vertex 49.25 -74 25
      vertex 50.25 -74 25
      vertex 49.25 -25.3333 25
    endloop
  endfacet
  facet normal -0 0 1
    outer loop
      vertex 49.25 -74 25
      vertex 100 -75 25
      vertex 50.25 -74 25
    endloop
  endfacet
  facet normal -0 0 1
    outer loop
      vertex 0.5 -74 25
      vertex 100 -75 25
      vertex 49.25 -74 25
    endloop
  endfacet
  facet normal 0 0 1
    outer loop
      vertex 0.5 25.3333 25
      vertex -0.5 74 25
      vertex -0.5 25.3333 25
    endloop
  endfacet
  facet normal 0 0 1
    outer loop
      vertex 0.5 -24.3333 25
      vertex -0.5 24.3333 25
      vertex 0.5 -25.3333 25
    endloop
  endfacet
  facet normal 0 0 1
    outer loop
      vertex -0.5 -74 25
      vertex 0.5 -25.3333 25
      vertex -0.5 24.3333 25
    endloop
  endfacet
  facet normal 0 0 1
    outer loop
      vertex 0.5 -25.3333 25
      vertex -0.5 -74 25
      vertex 0.5 -74 25
    endloop
  endfacet
  facet normal -0 0 1
    outer loop
      vertex -0.5 -74 25
      vertex 100 -75 25
      vertex 0.5 -74 25
    endloop
  endfacet
  facet normal 0 0 1
    outer loop
      vertex -100 -75 25
      vertex -0.5 -74 25
      vertex -99 -74 25
    endloop
  endfacet
  facet normal 0 0 1
    outer loop
      vertex -0.5 -74 25
      vertex -100 -75 25
      vertex 100 -75 25
    endloop
  endfacet
  facet normal 0 0 1
    outer loop
      vertex -99 24.3333 25
      vertex -100 -75 25
      vertex -99 -74 25
    endloop
  endfacet
  facet normal 0 0 -1
    outer loop
      vertex -100 -75 0
      vertex 100 75 0
      vertex 100 -75 0
    endloop
  endfacet
  facet normal -0 0 -1
    outer loop
      vertex 100 75 0
      vertex -100 -75 0
      vertex -100 75 0
    endloop
  endfacet
  facet normal 0 -1 0
    outer loop
      vertex -100 -75 0
      vertex 100 -75 25
      vertex -100 -75 25
    endloop
  endfacet
  facet normal 0 -1 -0
    outer loop
      vertex 100 -75 25
      vertex -100 -75 0
      vertex 100 -75 0
    endloop
  endfacet
endsolid OpenSCAD_Model
